<svg width="75" height="76" viewBox="0 0 75 76" fill="none" xmlns="http://www.w3.org/2000/svg">
<g clip-path="url(#clip0_201_1879)">
<g clip-path="url(#clip1_201_1879)">
<path d="M37.5 75.5C58.2107 75.5 75 58.7107 75 38C75 17.2893 58.2107 0.5 37.5 0.5C16.7893 0.5 0 17.2893 0 38C0 58.7107 16.7893 75.5 37.5 75.5Z" fill="#CFFFDA"/>
<path d="M18.0127 32.3697H47.6423C49.4273 32.3697 49.4309 29.5969 47.6423 29.5969H18.0127C16.2277 29.5969 16.2241 32.3697 18.0127 32.3697Z" fill="#7DDE92"/>
<path d="M51.5758 36.3913C54.5625 36.3913 56.9838 33.9701 56.9838 30.9833C56.9838 27.9965 54.5625 25.5753 51.5758 25.5753C48.589 25.5753 46.1677 27.9965 46.1677 30.9833C46.1677 33.9701 48.589 36.3913 51.5758 36.3913Z" fill="#7DDE92"/>
<path d="M51.5757 33.682C53.0662 33.682 54.2745 32.4737 54.2745 30.9833C54.2745 29.4928 53.0662 28.2845 51.5757 28.2845C50.0853 28.2845 48.877 29.4928 48.877 30.9833C48.877 32.4737 50.0853 33.682 51.5757 33.682Z" fill="#CFFFDA"/>
<path d="M18.0127 46.576H55.548C57.5553 46.576 57.5588 43.4539 55.548 43.4539H18.0127C16.0054 43.4539 16.0019 46.576 18.0127 46.576Z" fill="#7DDE92"/>
<path d="M36.7804 50.4247C39.7671 50.4247 42.1884 48.0035 42.1884 45.0167C42.1884 42.0299 39.7671 39.6086 36.7804 39.6086C33.7936 39.6086 31.3723 42.0299 31.3723 45.0167C31.3723 48.0035 33.7936 50.4247 36.7804 50.4247Z" fill="#7DDE92"/>
<path d="M36.7803 47.7154C38.2708 47.7154 39.4791 46.5071 39.4791 45.0167C39.4791 43.5262 38.2708 42.3179 36.7803 42.3179C35.2899 42.3179 34.0816 43.5262 34.0816 45.0167C34.0816 46.5071 35.2899 47.7154 36.7803 47.7154Z" fill="#CFFFDA"/>
</g>
</g>
<defs>
<clipPath id="clip0_201_1879">
<rect width="75" height="75" fill="white" transform="translate(0 0.5)"/>
</clipPath>
<clipPath id="clip1_201_1879">
<rect width="75" height="75" fill="white" transform="translate(0 0.5)"/>
</clipPath>
</defs>
</svg>
