<svg width="75" height="76" viewBox="0 0 75 76" fill="none" xmlns="http://www.w3.org/2000/svg">
<g clip-path="url(#clip0_201_1894)">
<path d="M37.5 75.5C58.2107 75.5 75 58.7107 75 38C75 17.2893 58.2107 0.5 37.5 0.5C16.7893 0.5 0 17.2893 0 38C0 58.7107 16.7893 75.5 37.5 75.5Z" fill="#CFFFDA"/>
<path d="M29.4321 36.4372C25.4281 36.4372 21.4241 36.4372 17.4201 36.4372C15.4128 36.4372 15.4092 39.5593 17.4201 39.5593C21.4241 39.5593 25.4281 39.5593 29.4321 39.5593C31.4393 39.5593 31.4429 36.4372 29.4321 36.4372Z" fill="#7DDE92"/>
<path d="M45.5433 39.5593C49.5543 39.5593 53.5654 39.5593 57.5765 39.5593C59.5837 39.5593 59.5873 36.4372 57.5765 36.4372C53.5654 36.4372 49.5543 36.4372 45.5433 36.4372C43.536 36.4372 43.5325 39.5593 45.5433 39.5593Z" fill="#7DDE92"/>
<path d="M35.9373 45.9762C35.9373 50.0084 35.9373 54.0442 35.9373 58.0764C35.9373 60.0837 39.0593 60.0872 39.0593 58.0764C39.0593 54.0442 39.0593 50.0084 39.0593 45.9762C39.0593 43.9689 35.9373 43.9654 35.9373 45.9762Z" fill="#7DDE92"/>
<path d="M35.9373 17.9235C35.9373 21.9487 35.9373 25.9703 35.9373 29.9955C35.9373 32.0028 39.0593 32.0063 39.0593 29.9955C39.0593 25.9703 39.0593 21.9487 39.0593 17.9235C39.0593 15.9162 35.9373 15.9127 35.9373 17.9235Z" fill="#7DDE92"/>
<path d="M32.9598 31.2514C30.1094 28.401 27.259 25.5505 24.4086 22.7001C22.9869 21.2784 20.7785 23.4833 22.2002 24.9085C25.0506 27.7589 27.901 30.6093 30.7515 33.4598C32.1731 34.8814 34.3815 32.6766 32.9598 31.2514Z" fill="#7DDE92"/>
<path d="M52.8104 51.1021C49.9565 48.2481 47.1025 45.3942 44.2486 42.5402C42.8269 41.1185 40.6185 43.3234 42.0402 44.7486C44.8942 47.6025 47.7481 50.4565 50.6021 53.3104C52.0238 54.7321 54.2321 52.5273 52.8104 51.1021Z" fill="#7DDE92"/>
<path d="M30.7514 42.5402C27.8975 45.3942 25.0435 48.2481 22.1896 51.1021C20.7679 52.5238 22.9727 54.7321 24.3979 53.3104C27.2519 50.4565 30.1058 47.6025 32.9598 44.7486C34.3815 43.3269 32.1766 41.1185 30.7514 42.5402Z" fill="#7DDE92"/>
<path d="M50.6021 22.6895C47.7481 25.5435 44.8942 28.3974 42.0402 31.2514C40.6185 32.673 42.8234 34.8814 44.2486 33.4597C47.1025 30.6058 49.9565 27.7518 52.8104 24.8979C54.2321 23.4762 52.0273 21.2678 50.6021 22.6895Z" fill="#7DDE92"/>
</g>
<defs>
<clipPath id="clip0_201_1894">
<rect width="75" height="75" fill="white" transform="translate(0 0.5)"/>
</clipPath>
</defs>
</svg>
