<svg width="75" height="76" viewBox="0 0 75 76" fill="none" xmlns="http://www.w3.org/2000/svg">
<g clip-path="url(#clip0_201_1936)">
<path d="M37.5 75.5C58.2107 75.5 75 58.7107 75 38C75 17.2893 58.2107 0.5 37.5 0.5C16.7893 0.5 0 17.2893 0 38C0 58.7107 16.7893 75.5 37.5 75.5Z" fill="#CFFFDA"/>
<path d="M37.5 58.0765C48.5879 58.0765 57.5764 49.0879 57.5764 38C57.5764 26.9121 48.5879 17.9236 37.5 17.9236C26.4121 17.9236 17.4236 26.9121 17.4236 38C17.4236 49.0879 26.4121 58.0765 37.5 58.0765Z" stroke="#7DDE92" stroke-width="3" stroke-miterlimit="10"/>
<path d="M37.5 47.1827C42.5715 47.1827 46.6827 43.0715 46.6827 38C46.6827 32.9285 42.5715 28.8173 37.5 28.8173C32.4285 28.8173 28.3173 32.9285 28.3173 38C28.3173 43.0715 32.4285 47.1827 37.5 47.1827Z" stroke="#7DDE92" stroke-width="3" stroke-miterlimit="10"/>
</g>
<defs>
<clipPath id="clip0_201_1936">
<rect width="75" height="75" fill="white" transform="translate(0 0.5)"/>
</clipPath>
</defs>
</svg>
