<svg width="53" height="65" viewBox="0 0 53 65" fill="none" xmlns="http://www.w3.org/2000/svg">
<path fill-rule="evenodd" clip-rule="evenodd" d="M9.93198 40.1914C2.13034 34.8208 -1.07512 28.0897 0.315608 19.998C2.24962 9.52495 7.12752 4.95301 14.9493 6.28223C17.4627 2.22168 21.3159 0.191406 26.5088 0.191406C31.7017 0.191406 35.5447 2.22168 38.0377 6.28223C45.8219 5.60351 50.7032 10.1755 52.6815 19.998C54.0795 27.4392 50.875 34.1703 43.068 40.1914V60.1793C43.068 62.3951 41.5845 64.1914 39.7544 64.1914H13.2456C11.4155 64.1914 9.93198 62.3951 9.93198 60.1793V40.1914ZM21.5296 36.1066V56.1672H23.1864V36.1066H21.5296ZM29.8136 36.1066V56.1672H31.4704V36.1066H29.8136Z" fill="#A72A2A"/>
</svg>
