<svg width="88" height="87" viewBox="0 0 88 87" fill="none" xmlns="http://www.w3.org/2000/svg">
<path fill-rule="evenodd" clip-rule="evenodd" d="M77.9974 52.1616C75.3088 54.8502 67.5911 60.0773 59.0202 51.5063C54.0117 46.4978 54.6287 31.5603 49.5281 26.4597C39.7142 16.6459 41.0361 19.8497 37.6534 16.467C34.2707 13.0843 33.973 11.9295 35.8296 10.073C37.6861 8.21646 39.3514 8.3666 42.5526 11.5678C45.7537 14.7689 42.7968 13.7075 52.5386 23.4492C57.5719 28.4826 72.3731 28.3738 77.2629 33.2636C85.949 41.9497 80.686 49.473 77.9974 52.1616ZM12.8827 31.149C21.4709 22.5608 26.2623 20.2612 34.8327 28.8316C43.3059 37.3048 35.7346 40.6971 37.0282 46.3264C38.0121 50.608 39.1485 54.6474 41.352 56.8509C51.1659 66.6648 50.1445 63.1595 53.5272 66.5422C56.9099 69.9249 56.907 71.3811 55.0505 73.2377C53.194 75.0942 51.4983 75.0354 48.2972 71.8343C45.096 68.6331 48.0832 69.6031 38.3415 59.8614C36.1525 57.6723 32.1158 56.4559 27.8504 55.3779C22.3084 53.9772 19.1674 61.3593 10.7362 52.9281C2.05009 44.242 4.29447 39.7373 12.8827 31.149ZM14.2896 41.7587L21.7514 49.2205L23.2668 47.7051L15.805 40.2432L14.2896 41.7587ZM16.8542 36.7462L26.7035 46.5955L28.2189 45.0801L18.3696 35.2307L16.8542 36.7462ZM21.8667 34.1816L29.3285 41.6434L30.8439 40.128L23.3821 32.6661L21.8667 34.1816Z" fill="#A72A2A"/>
</svg>
