<svg width="74" height="75" viewBox="0 0 74 75" fill="none" xmlns="http://www.w3.org/2000/svg">
<path fill-rule="evenodd" clip-rule="evenodd" d="M65.9475 49.5247C65.8349 50.4207 65.7778 51.3262 65.7778 52.2363V65.9692C65.7778 70.5102 62.0966 74.1914 57.5556 74.1914H16.4444C11.9034 74.1914 8.22222 70.5102 8.22222 65.9692V52.7388C8.22222 51.6592 8.14709 50.5854 7.9991 49.5247H2.05556C0.920304 49.5247 0 48.6044 0 47.4692C0 46.3339 0.920304 45.4136 2.05556 45.4136H7.03857C6.35575 43.3559 5.3848 41.3923 4.14473 39.5842C12.5011 35.3376 23.4641 33.2143 37.0336 33.2143C50.4198 33.2143 61.3549 35.3376 69.8387 39.5842C68.5552 41.3777 67.56 43.3446 66.8761 45.4136H71.9444C73.0797 45.4136 74 46.3339 74 47.4692C74 48.6044 73.0797 49.5247 71.9444 49.5247H65.9475ZM45.2222 31.0247H28.7778C28.7778 27.619 32.459 24.8581 37 24.8581C41.541 24.8581 45.2222 27.619 45.2222 31.0247ZM6.56475 34.8462C8.70022 31.3582 9.63578 28.2364 9.37142 25.4809C8.97487 21.3477 4.58936 20.1286 4.13187 14.7949C3.67438 9.46109 10.9294 4.316 10.9695 4.30254C11.0097 4.28908 8.59761 9.59006 8.76117 14.385C8.92472 19.1799 13.0942 21.1495 13.0232 24.5807C12.9759 26.8681 10.8231 30.2899 6.56475 34.8462ZM16.5351 30.7351C18.6706 27.247 19.6062 24.1253 19.3418 21.3698C18.9453 17.2366 14.5597 16.0175 14.1023 10.6838C13.6448 5.34998 20.8998 0.20489 20.9399 0.191432C20.98 0.177974 18.568 5.47895 18.7316 10.2739C18.8951 15.0688 23.0646 17.0384 22.9936 20.4695C22.9463 22.757 20.7935 26.1788 16.5351 30.7351Z" fill="#A72A2A"/>
</svg>
