<svg width="65" height="57" viewBox="0 0 65 57" fill="none" xmlns="http://www.w3.org/2000/svg">
<path fill-rule="evenodd" clip-rule="evenodd" d="M53.2488 1.05728C59.2638 1.50023 64.1216 6.55067 64.3656 12.9136C64.3881 13.5003 64.3701 14.0879 64.3118 14.6719L62.5279 32.5313L58.4316 32.0957L60.2154 14.2363C60.2537 13.8527 60.2655 13.4669 60.2508 13.0816C60.0893 8.87098 56.8512 5.53558 52.8591 5.28958L48.8808 48.4968C48.4791 52.8594 44.9285 56.1915 40.6816 56.1915H17.6004C13.1924 56.1915 9.56591 52.6104 9.37221 48.0664L8.48047 27.1467C8.35456 24.1927 7.73162 21.2838 6.63951 18.5502L0.780943 3.88554C0.347546 2.8007 0.848492 1.55873 1.89984 1.11153C2.14874 1.00565 2.41535 0.951172 2.68457 0.951172L53.2585 0.951172L53.2488 1.05728ZM14.0219 15.8236V17.9482H24.3507V15.8236H14.0219ZM15.8595 22.1975V24.3221H24.317V22.1975H15.8595ZM16.7464 28.5713V30.696H24.317V28.5713H16.7464ZM16.7464 34.9452V37.0699H24.317V34.9452H16.7464ZM16.7464 41.3191V43.4437H24.317V41.3191H16.7464Z" fill="#A72A2A"/>
</svg>
