<svg width="56" height="57" viewBox="0 0 56 57" fill="none" xmlns="http://www.w3.org/2000/svg">
<path fill-rule="evenodd" clip-rule="evenodd" d="M28 56.1914C12.536 56.1914 0 43.6554 0 28.1914C0 12.7274 12.536 0.191406 28 0.191406C43.464 0.191406 56 12.7274 56 28.1914C56 43.6554 43.464 56.1914 28 56.1914ZM41.0667 39.6706L38.3993 36.7224C37.0577 37.9391 35.5681 38.8906 33.9302 39.577C32.2923 40.2633 30.6154 40.6065 28.8995 40.6065C26.2165 40.6065 23.8143 39.8734 21.6929 38.4071C19.5714 36.9408 18.0427 35.0221 17.1068 32.6511H29.7887V30.124H16.4048C16.3112 29.4689 16.2644 28.8137 16.2644 28.1586C16.2644 27.6906 16.28 27.3318 16.3112 27.0823H29.7887V24.602H16.7792C17.5592 22.0126 19.0644 19.8912 21.2951 18.2377C23.5257 16.5842 26.0605 15.7575 28.8995 15.7575C30.6154 15.7575 32.3079 16.124 33.977 16.8572C35.6461 17.5903 37.1201 18.5965 38.3993 19.8756L41.0199 16.6466C39.4288 15.1179 37.5725 13.9246 35.4511 13.0667C33.3296 12.2087 31.1302 11.7798 28.8527 11.7798C26.1385 11.7798 23.6037 12.3257 21.2483 13.4176C18.8928 14.5096 16.9118 16.0304 15.3051 17.9803C13.6984 19.9302 12.6299 22.1374 12.0995 24.602H7.46667V27.0823H11.7252C11.694 27.3318 11.6784 27.7062 11.6784 28.2054C11.6784 28.6734 11.7096 29.3129 11.772 30.124H7.46667V32.6511H12.2867C12.9107 34.9909 14.0182 37.0811 15.6093 38.9218C17.2004 40.7625 19.1268 42.2054 21.3887 43.2505C23.6505 44.2956 26.0761 44.8182 28.6656 44.8182C30.9118 44.8182 33.1268 44.358 35.3107 43.4377C37.4945 42.5174 39.4132 41.2617 41.0667 39.6706Z" fill="#A72A2A"/>
</svg>
