<svg width="71" height="69" viewBox="0 0 71 69" fill="none" xmlns="http://www.w3.org/2000/svg">
<rect x="1.59705" y="1" width="67.8058" height="66.2365" rx="33.1183" fill="white"/>
<path d="M44.1274 41.9617H27.6562L24.5188 20H20.597" stroke="#7F78E0" stroke-width="2" stroke-linecap="round" stroke-linejoin="round"/>
<path d="M24.9677 23.1367H50.4029L45.6968 37.2549H26.9845" stroke="#7F78E0" stroke-width="2" stroke-linecap="round" stroke-linejoin="round"/>
<path d="M31.5779 48.2364C33.3107 48.2364 34.7153 46.8318 34.7153 45.0991C34.7153 43.3663 33.3107 41.9617 31.5779 41.9617C29.8452 41.9617 28.4406 43.3663 28.4406 45.0991C28.4406 46.8318 29.8452 48.2364 31.5779 48.2364Z" stroke="#7F78E0" stroke-width="2" stroke-linecap="round" stroke-linejoin="round"/>
<path d="M44.1275 48.2364C45.8603 48.2364 47.2649 46.8318 47.2649 45.0991C47.2649 43.3663 45.8603 41.9617 44.1275 41.9617C42.3947 41.9617 40.9901 43.3663 40.9901 45.0991C40.9901 46.8318 42.3947 48.2364 44.1275 48.2364Z" stroke="#7F78E0" stroke-width="2" stroke-linecap="round" stroke-linejoin="round"/>
<rect x="1.59705" y="1" width="67.8058" height="66.2365" rx="33.1183" stroke="#7F78E0" stroke-width="2"/>
</svg>
