<svg width="89" height="88" viewBox="0 0 89 88" fill="none" xmlns="http://www.w3.org/2000/svg">
<path d="M33.5 63.8L64.3 44L33.5 24.2V63.8ZM44.5 88C38.4133 88 32.6933 86.8443 27.34 84.5328C21.9867 82.2213 17.33 79.0871 13.37 75.13C9.41 71.17 6.27573 66.5133 3.9672 61.16C1.65867 55.8067 0.502933 50.0867 0.5 44C0.5 37.9133 1.65573 32.1933 3.9672 26.84C6.27867 21.4867 9.41293 16.83 13.37 12.87C17.33 8.91 21.9867 5.77573 27.34 3.4672C32.6933 1.15867 38.4133 0.00293333 44.5 0C50.5867 0 56.3067 1.15573 61.66 3.4672C67.0133 5.77867 71.67 8.91293 75.63 12.87C79.59 16.83 82.7257 21.4867 85.0372 26.84C87.3487 32.1933 88.5029 37.9133 88.5 44C88.5 50.0867 87.3443 55.8067 85.0328 61.16C82.7213 66.5133 79.5871 71.17 75.63 75.13C71.67 79.09 67.0133 82.2257 61.66 84.5372C56.3067 86.8487 50.5867 88.0029 44.5 88Z" fill="#F4F4F4"/>
</svg>
