<svg width="75" height="36" viewBox="0 0 75 36" fill="none" xmlns="http://www.w3.org/2000/svg">
<rect width="75" height="36" rx="10" fill="#7F78E0"/>
<path d="M45 19.25H38.75V25.5C38.75 25.8315 38.6183 26.1495 38.3839 26.3839C38.1495 26.6183 37.8315 26.75 37.5 26.75C37.1685 26.75 36.8505 26.6183 36.6161 26.3839C36.3817 26.1495 36.25 25.8315 36.25 25.5V19.25H30C29.6685 19.25 29.3505 19.1183 29.1161 18.8839C28.8817 18.6495 28.75 18.3315 28.75 18C28.75 17.6685 28.8817 17.3505 29.1161 17.1161C29.3505 16.8817 29.6685 16.75 30 16.75H36.25V10.5C36.25 10.1685 36.3817 9.85054 36.6161 9.61612C36.8505 9.3817 37.1685 9.25 37.5 9.25C37.8315 9.25 38.1495 9.3817 38.3839 9.61612C38.6183 9.85054 38.75 10.1685 38.75 10.5V16.75H45C45.3315 16.75 45.6495 16.8817 45.8839 17.1161C46.1183 17.3505 46.25 17.6685 46.25 18C46.25 18.3315 46.1183 18.6495 45.8839 18.8839C45.6495 19.1183 45.3315 19.25 45 19.25Z" fill="white"/>
</svg>
