<svg width="35" height="104" viewBox="0 0 35 104" fill="none" xmlns="http://www.w3.org/2000/svg">
<path d="M20.402 4.55809C22.1095 -0.85712 29.4585 -1.65679 32.2364 3.2915C33.885 6.23257 35.191 10.8535 34.9769 18.0881C34.9769 18.0881 34.9983 38.5414 30.3095 52.329C29.8064 53.8102 29.3033 56.3005 29.1534 57.8569C28.7787 61.8177 28.7894 64.2167 30.4005 74.1508C31.2302 79.2762 31.5781 84.0796 31.0321 89.0386C30.256 96.08 27.8688 103.959 21.0604 103.959C21.0604 103.959 8.2144 106.105 13.5669 77.1241C13.5669 77.1241 14.1343 73.7215 15.3279 69.5568C17.5866 61.6889 14.8943 53.1662 8.4285 48.1696C8.18229 47.9818 7.93607 47.7939 7.67915 47.6007C7.67915 47.6007 -2.12128 40.0387 0.421162 32.5304C1.58801 29.0849 5.44716 27.4426 8.64795 29.1654C10.7247 30.2817 12.8015 32.6056 13.599 37.3607C13.963 39.5504 14.6588 41.681 15.8096 43.5755C15.8203 43.5916 15.831 43.6077 15.8364 43.6238C17.4475 46.2161 21.4137 45.4808 22.1309 42.5129C22.6822 40.2266 22.8 36.561 21.8579 30.7003C21.8579 30.7003 17.4742 13.8106 20.3967 4.55273L20.402 4.55809Z" fill="#EC9F3F"/>
</svg>
