<svg width="29" height="104" viewBox="0 0 29 104" fill="none" xmlns="http://www.w3.org/2000/svg">
<path d="M27.0919 49.8826C26.3455 53.2956 25.6308 58.5717 26.6419 63.8533C26.769 64.5283 26.8113 65.2142 26.8007 65.9C26.7054 70.8089 26.3508 89.4996 26.319 94.3869C26.319 94.8243 26.3508 95.9422 26.3508 96.034C26.3508 100.43 22.6503 104 18.4099 104C14.1695 104 10.7337 100.43 10.7337 96.034L10.4373 80.8968C10.3579 76.8357 10.0826 72.7693 9.40497 68.7676C9.00793 66.4238 9.07145 63.0216 11.5278 59.911C11.5278 59.911 14.2224 56.2334 11.5755 51.2111C11.3319 50.752 11.0249 50.3416 10.702 49.942C9.52143 48.4785 5.641 40.8046 9.93965 33.1307C10.792 31.6132 10.9984 28.8104 9.26203 27.0715C5.98511 23.7827 -0.939318 18.0475 0.108875 10.0226C0.865903 4.24958 5.70453 -0.16791 11.4114 0.00490117C13.836 0.0805061 16.8535 0.631342 19.9557 2.87789C27.4095 8.27824 29.1565 22.3786 28.9871 34.3187C28.913 39.5571 28.2089 44.763 27.0919 49.8772V49.8826Z" fill="#E64050"/>
</svg>
