<svg width="6" height="7" viewBox="0 0 6 7" fill="none" xmlns="http://www.w3.org/2000/svg">
<path d="M2.99513 6.712C2.48313 6.712 2.01113 6.584 1.57913 6.328C1.14713 6.056 0.803125 5.696 0.547125 5.248C0.291125 4.8 0.163125 4.28 0.163125 3.688C0.163125 3.096 0.291125 2.576 0.547125 2.128C0.803125 1.68 1.14713 1.328 1.57913 1.072C2.01113 0.799999 2.48313 0.663999 2.99513 0.663999C3.50713 0.663999 3.97113 0.799999 4.38713 1.072C4.81913 1.328 5.16313 1.68 5.41913 2.128C5.69113 2.576 5.82713 3.096 5.82713 3.688C5.82713 4.28 5.69113 4.8 5.41913 5.248C5.16313 5.696 4.81913 6.056 4.38713 6.328C3.97113 6.584 3.50713 6.712 2.99513 6.712Z" fill="black"/>
</svg>
